<svg width="640" height="480" xmlns="http://www.w3.org/2000/svg" xmlns:xlink="http://www.w3.org/1999/xlink">
 <g>
  <title>Layer 1</title>
  <use xlink:href="#svg_37" id="svg_38" transform="matrix(0.9735319876621548,0,0,0.9735319876621548,-652.9198886876264,-471.9779403775788) " y="490.617152" x="687.489003"/>
 </g>
 <defs>
  <svg viewBox="0 0 499.992 500.004" id="svg_37" xmlns:xlink="http://www.w3.org/1999/xlink">
   <g id="calculator-pencil">
    <g id="svg_39">
     <circle id="svg_40" cx="249.994" cy="250.002" r="250.002" fill="#691227"/>
     <g id="_x38_">
      <linearGradient id="SVGID_1_" x1="0.000002" x2="1.000003" y1="0.500001" y2="0.500001">
       <stop offset="0.5" stop-color="#586373"/>
       <stop offset="0.5" stop-color="#474F59"/>
      </linearGradient>
      <path id="svg_41" d="m125.319,145.841003v210.110992c0.009003,8.009003 6.449005,14.377991 13.880005,14.393005l0,0h176.768005c7.432007,-0.015015 13.863007,-6.38501 13.880005,-14.393005l0,0v-210.110992c-0.016998,-8.018997 -6.449005,-14.386993 -13.880005,-14.401993l0,0h-176.767014c-7.431992,0.014984 -13.871994,6.382996 -13.880997,14.401993l0,0z" fill="url(#SVGID_1_)"/>
      <g id="svg_42">
       <g id="svg_43">
        <g id="svg_44">
         <path id="svg_45" d="m306.963013,184.854996c0,5.979004 -4.893005,10.876007 -10.880005,10.876007h-136.999008c-5.979004,0 -10.871994,-4.89801 -10.871994,-10.876007v-22.472c0,-5.983002 4.89299,-10.871994 10.871994,-10.871994h136.999008c5.987,0 10.880005,4.888992 10.880005,10.871994v22.472l0,0z" fill="#AFE9D7"/>
        </g>
       </g>
       <g id="svg_46">
        <g id="svg_47">
         <path id="svg_48" d="m233.315002,227.843994c0,-3.591995 2.940002,-6.522995 6.526001,-6.522995h16.31601c3.589996,0 6.526001,2.932007 6.526001,6.522995v16.312012c0,3.584991 -2.936005,6.520996 -6.526001,6.520996h-16.317017c-3.585999,0 -6.526001,-2.936005 -6.526001,-6.520996v-16.312012l0.001007,0z" fill="#5FD4AF"/>
        </g>
        <g id="svg_49">
         <g id="svg_50">
          <path id="svg_51" d="m274.139008,227.843994c0,-3.591995 2.940002,-6.522995 6.528992,-6.522995h16.31601c3.589996,0 6.520996,2.932007 6.520996,6.522995v16.312012c0,3.584991 -2.932007,6.520996 -6.520996,6.520996h-16.31601c-3.589996,0 -6.528992,-2.936005 -6.528992,-6.520996v-16.312012l0,0z" fill="#FF9554"/>
         </g>
        </g>
       </g>
       <g id="svg_52">
        <path id="svg_53" d="m174.507004,221.320999h-16.315994c-3.590012,0 -6.529999,2.932007 -6.529999,6.522995v16.312012c0,3.584991 2.939987,6.520996 6.529999,6.520996h16.315994c3.589996,0 6.520996,-2.936005 6.520996,-6.520996v-16.312012c0,-3.591995 -2.931,-6.522995 -6.520996,-6.522995z" fill="#FFFFFF"/>
        <path id="svg_54" d="m215.332001,221.320999h-16.315994c-3.590012,0 -6.522003,2.932007 -6.522003,6.522995v16.312012c0,3.584991 2.931992,6.520996 6.522003,6.520996h16.315994c3.589996,0 6.520996,-2.936005 6.520996,-6.520996v-16.312012c0,-3.591995 -2.931992,-6.522995 -6.520996,-6.522995z" fill="#FFFFFF"/>
        <path id="svg_55" d="m174.507004,255.876007h-16.315994c-3.590012,0 -6.529999,2.93399 -6.529999,6.516998v16.31601c0,3.582977 2.939987,6.52298 6.529999,6.52298h16.315994c3.589996,0 6.520996,-2.940002 6.520996,-6.52298v-16.31601c0,-3.583008 -2.931,-6.516998 -6.520996,-6.516998z" fill="#FFFFFF"/>
        <path id="svg_56" d="m215.332001,255.876007h-16.315994c-3.590012,0 -6.522003,2.93399 -6.522003,6.516998v16.31601c0,3.582977 2.931992,6.52298 6.522003,6.52298h16.315994c3.589996,0 6.520996,-2.940002 6.520996,-6.52298v-16.31601c0,-3.583008 -2.931992,-6.516998 -6.520996,-6.516998z" fill="#FFFFFF"/>
        <path id="svg_57" d="m256.156006,255.876007h-16.31601c-3.585999,0 -6.526001,2.93399 -6.526001,6.516998v16.31601c0,3.582977 2.940002,6.52298 6.526001,6.52298h16.31601c3.589996,0 6.526001,-2.940002 6.526001,-6.52298v-16.31601c0,-3.583008 -2.936005,-6.516998 -6.526001,-6.516998z" fill="#FFFFFF"/>
        <path id="svg_58" d="m296.984985,255.876007h-16.31601c-3.589996,0 -6.528992,2.93399 -6.528992,6.516998v16.31601c0,3.582977 2.940002,6.52298 6.528992,6.52298h16.31601c3.589996,0 6.520996,-2.940002 6.520996,-6.52298v-16.31601c0.000031,-3.583008 -2.930969,-6.516998 -6.520996,-6.516998z" fill="#FFFFFF"/>
        <path id="svg_59" d="m174.507004,290.424988h-16.315994c-3.590012,0 -6.529999,2.93399 -6.529999,6.522003v16.313995c0,3.584991 2.939987,6.520996 6.529999,6.520996h16.315994c3.589996,0 6.520996,-2.936005 6.520996,-6.520996v-16.313995c0,-3.587982 -2.931,-6.522003 -6.520996,-6.522003z" fill="#FFFFFF"/>
        <path id="svg_60" d="m215.332001,290.424988h-16.315994c-3.590012,0 -6.522003,2.93399 -6.522003,6.522003v16.313995c0,3.584991 2.931992,6.520996 6.522003,6.520996h16.315994c3.589996,0 6.520996,-2.936005 6.520996,-6.520996v-16.313995c0,-3.587982 -2.931992,-6.522003 -6.520996,-6.522003z" fill="#FFFFFF"/>
        <path id="svg_61" d="m256.156006,290.424988h-16.31601c-3.585999,0 -6.526001,2.93399 -6.526001,6.522003v16.313995c0,3.584991 2.940002,6.520996 6.526001,6.520996h16.31601c3.589996,0 6.526001,-2.936005 6.526001,-6.520996v-16.313995c0,-3.587982 -2.936005,-6.522003 -6.526001,-6.522003z" fill="#FFFFFF"/>
        <path id="svg_62" d="m296.984985,290.424988h-16.31601c-3.589996,0 -6.528992,2.93399 -6.528992,6.522003v16.313995c0,3.584991 2.940002,6.520996 6.528992,6.520996h16.31601c3.589996,0 6.520996,-2.936005 6.520996,-6.520996v-16.313995c0.000031,-3.587982 -2.930969,-6.522003 -6.520996,-6.522003z" fill="#FFFFFF"/>
        <path id="svg_63" d="m174.507004,324.976013h-16.315994c-3.590012,0 -6.529999,2.93399 -6.529999,6.526001v16.312012c0,3.586975 2.939987,6.520996 6.529999,6.520996h16.315994c3.589996,0 6.520996,-2.934021 6.520996,-6.520996v-16.312012c0,-3.593018 -2.931,-6.526001 -6.520996,-6.526001z" fill="#FFFFFF"/>
        <path id="svg_64" d="m215.332001,324.976013h-16.315994c-3.590012,0 -6.522003,2.93399 -6.522003,6.526001v16.312012c0,3.586975 2.931992,6.520996 6.522003,6.520996h16.315994c3.589996,0 6.520996,-2.934021 6.520996,-6.520996v-16.312012c0,-3.593018 -2.931992,-6.526001 -6.520996,-6.526001z" fill="#FFFFFF"/>
        <path id="svg_65" d="m256.156006,324.976013h-16.31601c-3.585999,0 -6.526001,2.93399 -6.526001,6.526001v16.312012c0,3.586975 2.940002,6.520996 6.526001,6.520996h16.31601c3.589996,0 6.526001,-2.934021 6.526001,-6.520996v-16.312012c0,-3.593018 -2.936005,-6.526001 -6.526001,-6.526001z" fill="#FFFFFF"/>
        <path id="svg_66" d="m296.984985,324.976013h-16.31601c-3.589996,0 -6.528992,2.93399 -6.528992,6.526001v16.312012c0,3.586975 2.940002,6.520996 6.528992,6.520996h16.31601c3.589996,0 6.520996,-2.934021 6.520996,-6.520996v-16.312012c0.000031,-3.593018 -2.930969,-6.526001 -6.520996,-6.526001z" fill="#FFFFFF"/>
       </g>
       <g id="svg_67">
        <path id="svg_68" d="m291.257996,166.104004h4.261017v12.783997h-4.261017v4.261002h-12.781982v-4.261002h-4.265015v-12.783997h4.265015v-4.263h12.781982v4.263l0,0zm0,0.065994h-12.781982v12.613007h12.781982v-12.613007l0,0z" fill="#59616A"/>
       </g>
      </g>
      <g id="svg_69">
       <path id="svg_70" d="m369.476013,167.891998h-18.717987c0.056,-8.487 0.097992,-13.548996 0.115997,-13.626007c0.149994,-0.542999 0.260986,-0.96199 0.243988,-0.96199c0,0 0,-0.028 0.016998,-0.076996c0,0 0.089996,-0.205002 0.10199,-0.27301c0.051025,-0.076996 8.31601,-21.408005 8.31601,-21.408005c1.003998,-2.569992 2.449005,-2.501999 3.213989,0.154007l6.513,22.459991c-0.016998,-0.014999 0.21402,1.098007 0.235016,1.540009c0.006989,0.059998 -0.005005,4.636002 -0.039001,12.192001z" fill="#59616A"/>
       <linearGradient id="SVGID_2_" x1="0.000012" x2="0.999503" y1="0.499984" y2="0.499984">
        <stop offset="0.5" stop-color="#FFFFFF"/>
        <stop offset="0.5" stop-color="#EBEBEB"/>
       </linearGradient>
       <path id="svg_71" d="m369.684998,319.931h-0.786011c0,0 0.427002,-106.074005 0.572021,-147.723007h-18.735016c-0.31601,50.662003 -1.003998,191.302017 -1.003998,191.302017c0,2.779999 2.256012,5.033997 5.029999,5.033997l8.914001,0.023987c2.752014,0.006012 5.016998,-2.25 5.016998,-5.001984l0.020996,-0.489014h0.671021c2.776978,0.016998 5.024994,-2.217987 5.059998,-4.985016l0.230988,-33.105988c0.013,-2.768005 -2.225983,-5.03299 -4.990997,-5.054993z" fill="url(#SVGID_2_)"/>
      </g>
     </g>
    </g>
   </g>
   <g id="Layer_1"/>
  </svg>
 </defs>
</svg>