<svg width="499.992" height="500.004" xmlns="http://www.w3.org/2000/svg">
 <g>
  <title>Layer 1</title>
  <g id="graphs">
   <g id="svg_22">
    <path d="m251.497864,20.000805c129.50296,0 234.494141,104.991177 234.494141,234.506336c0,129.506683 -104.99118,234.497864 -234.494141,234.497864s-234.497864,-104.99118 -234.497864,-234.497864c0,-129.515175 104.994919,-234.506336 234.497864,-234.506336z" fill="#691227" id="svg_23"/>
    <g id="_x31_7">
     <g id="svg_24">
      <path d="m358.612671,367.378418c7.548065,0 13.676941,-6.116699 13.676941,-13.669464v-8.305054c0,-6.574432 -4.642151,-12.04953 -10.815125,-13.372131c-0.786011,3.928375 -3.086945,7.368011 -6.188904,9.820862c-3.87204,3.070068 -8.995392,4.84198 -14.579315,4.850403h-10.425842c-5.583923,-0.007477 -10.711029,-1.779388 -14.574646,-4.850403c-3.191071,-2.526031 -5.527618,-6.068848 -6.252686,-10.125671h-4.5737c-0.721313,4.056824 -3.062561,7.608093 -6.245178,10.125671c-3.872101,3.062592 -8.999176,4.850403 -14.5784,4.850403h-10.426819c-5.583862,0 -10.710052,-1.787811 -14.578369,-4.850403c-3.182617,-2.517578 -5.527618,-6.068848 -6.245178,-10.125671h-4.577454c-0.726013,4.056824 -3.062561,7.59964 -6.249878,10.125671c-3.868317,3.070068 -8.990723,4.84198 -14.574631,4.850403h-10.425858c-5.583908,-0.007477 -10.711014,-1.779388 -14.579315,-4.850403c-3.187332,-2.526031 -5.52388,-6.068848 -6.248947,-10.125671h-2.621704c-0.726013,4.056824 -3.062576,7.59964 -6.249893,10.125671c-3.868301,3.062592 -8.995407,4.850403 -14.574631,4.850403h-10.425858c-5.587662,0 -10.711014,-1.787811 -14.574631,-4.850403c-3.106644,-2.461304 -5.407562,-5.892487 -6.193604,-9.820862c-6.176727,1.322601 -10.811386,6.798645 -10.811386,13.372131v8.305054c0,7.551819 6.121384,13.669464 13.673218,13.669464" fill="#FFFFFF" id="svg_25"/>
      <path d="m330.281372,342.798157c-9.484131,0 -17.172913,-6.116699 -17.172913,-13.676941v-140.001068c0,-7.551834 7.687866,-13.676971 17.172913,-13.676971h10.425842c9.4888,0 17.172882,6.124207 17.172882,13.676971v140.001068c0,7.560242 -7.684082,13.676941 -17.172882,13.676941h-10.425842l0,0z" fill="#59616A" id="svg_26"/>
      <path d="m273.632782,342.798157c-9.487885,0 -17.176636,-6.116699 -17.176636,-13.676941v-88.235718c0,-7.544327 7.688751,-13.669449 17.176636,-13.669449h10.422089c9.4841,0 17.172913,6.125122 17.172913,13.669449v88.235718c0,7.560242 -7.688812,13.676941 -17.172913,13.676941h-10.422089l0,0z" fill="#5FD4AF" id="svg_27"/>
      <path d="m216.9767,342.798157c-9.484116,0 -17.176651,-6.116699 -17.176651,-13.676941v-109.231888c0,-7.560272 7.692535,-13.676956 17.176651,-13.676956h10.425858c9.484116,0 17.172882,6.116684 17.172882,13.676956v109.231888c0,7.560242 -7.687836,13.676941 -17.172882,13.676941h-10.425858l0,0z" fill="#A8B6C0" id="svg_28"/>
      <path d="m162.276352,342.798157c-9.4841,0 -17.168198,-6.116699 -17.168198,-13.676941v-70.97467c0,-7.551819 7.684097,-13.676956 17.168198,-13.676956h10.425858c9.4841,0 17.176636,6.125137 17.176636,13.676956v70.97467c0,7.560242 -7.692535,13.676941 -17.176636,13.676941h-10.425858l0,0z" fill="#FFFFFF" id="svg_29"/>
     </g>
     <g id="svg_30">
      <polygon points="219.5740203857422,189.03196716308594 154.34744262695312,236.1636199951172 151.8701934814453,232.53167724609375 217.0967559814453,185.4075469970703 " fill="#FFFFFF" id="svg_31"/>
      <polygon points="333.7003479003906,153.5718536376953 281.28497314453125,209.71580505371094 278.0666809082031,206.71701049804688 330.48114013671875,150.58152770996094 " fill="#FFFFFF" id="svg_32"/>
      <polygon points="282.12261962890625,212.19305419921875 214.25462341308594,189.4324951171875 215.81451416015625,185.32781982421875 283.6862487792969,208.08836364746094 " fill="#FFFFFF" id="svg_33"/>
      <path d="m159.293518,233.79892c0,2.877762 -2.336548,5.210587 -5.210587,5.210587c-2.877777,0 -5.210587,-2.332825 -5.210587,-5.210587c0,-2.877777 2.332809,-5.203079 5.210587,-5.203079c2.874023,0 5.210587,2.324356 5.210587,5.203079z" fill="#59616A" id="svg_34"/>
      <path d="m221.827087,188.470108c0,2.870285 -2.336548,5.203079 -5.210587,5.203079c-2.877777,0 -5.210587,-2.332794 -5.210587,-5.203079c0,-2.877762 2.332809,-5.210571 5.210587,-5.210571c2.873093,0 5.210587,2.332809 5.210587,5.210571z" fill="#59616A" id="svg_35"/>
      <circle cx="278.885571" cy="208.247827" r="5.208708" fill="#59616A" id="svg_36"/>
      <polygon points="340.3104248046875,163.24075317382812 342.3346252441406,141.6189422607422 320.8328857421875,144.67401123046875 " fill="#FFFFFF" id="svg_37"/>
     </g>
    </g>
   </g>
  </g>
  <g id="Layer_1"/>
 </g>
</svg>